<?xml version="1.0" ?>
<svg xmlns="http://www.w3.org/2000/svg" xmlns:ev="http://www.w3.org/2001/xml-events" xmlns:xlink="http://www.w3.org/1999/xlink" baseProfile="full" height="456.22433mm" id="svg5" version="1.1" viewBox="0 0 516.91425 456.22433" width="516.91425mm" xml:space="preserve">
	<defs/>
	<path d="M 291.887,454.878 C 290.786,454.139 289.41,452.612 288.831,451.487 C 288.253,450.362 285.795,440.162 283.371,428.821 C 280.945,417.48 278.765,408.026 278.524,407.812 C 278.283,407.598 275.962,406.516 273.366,405.409 C 267.018,402.702 262.42,399.576 257.312,394.492 C 249.772,386.99 243.161,375.314 240.369,364.566 C 237.361,352.994 237.134,345.397 239.458,334.268 L 240.533,329.119 L 238.477,325.728 C 237.345,323.863 236.265,322.336 236.076,322.336 C 235.887,322.336 232.655,323.902 228.893,325.814 C 221.211,329.722 214.675,332.152 206.425,334.172 C 201.676,335.334 199.247,335.547 190.5,335.567 C 180.786,335.587 179.898,335.497 175.414,333.984 C 166.864,331.099 159.942,325.011 156.923,317.719 C 156.359,316.358 155.152,315.312 152.547,313.927 C 143.887,309.323 137.064,299.837 136.392,291.467 C 136.218,289.306 135.98,287.538 135.863,287.538 C 135.746,287.538 134.389,288.436 132.847,289.535 C 131.306,290.633 127.788,292.662 125.031,294.043 C 104.089,304.529 82.57,304.621 61.037,294.315 C 54.085,290.988 48.647,286.792 43.99,281.163 C 40.827,277.34 39.649,276.366 36.763,275.194 C 29.737,272.338 21.948,267.082 17.37,262.107 C 10.303,254.428 7.406,247.371 6.505,235.634 C 6.122,230.645 5.617,228.395 3.91,224.058 C -1.587,210.09 -1.271,191.955 4.754,175.443 C 6.899,169.569 7.282,167.77 7.695,161.613 C 8.982,142.466 15.041,128.645 27.693,115.993 C 32.07,111.616 32.675,110.711 35.116,104.883 C 45.248,80.7 60.628,64.302 85.539,51.12 C 93.4,46.96 102.337,43.344 108.277,41.918 C 111.856,41.059 113.095,40.387 116.835,37.269 C 126.656,29.08 134.257,25.113 146.41,21.832 C 149.78,20.922 153.054,19.513 155.853,17.769 C 161.838,14.038 167.434,11.61 173.978,9.904 C 181.543,7.931 196.676,7.402 205.766,8.792 L 211.89,9.729 L 216.973,7.441 C 226.031,3.364 233.936,1.45 246.447,0.304 C 259.295,-0.872 276.802,1.427 290.162,6.045 C 296.02,8.07 296.804,8.194 304.039,8.233 C 308.874,8.263 312.549,8.569 313.987,9.074 C 315.483,9.598 317.411,9.746 319.589,9.503 C 327.37,8.635 338.758,11.561 346.022,16.294 C 348.082,17.636 351.484,20.401 353.584,22.44 C 357.16,25.912 357.819,26.284 364.002,28.321 C 379.917,33.566 392.536,40.54 406.532,51.827 C 413.291,57.279 427.061,71.266 433.1,78.816 C 436.832,83.483 438.701,85.21 443.613,88.533 C 468.501,105.368 481.239,126.769 486.656,160.848 L 487.903,168.691 L 494.807,175.474 C 511.099,191.482 516.923,205.542 516.914,228.851 C 516.914,243.932 514.575,254.624 508.618,266.857 C 505.709,272.833 504.753,274.181 500.235,278.67 C 494.619,284.252 489.982,287.051 482.456,289.4 C 478.755,290.556 476.758,290.781 470.211,290.781 C 463.502,290.781 462.439,290.906 462.731,291.666 C 465.794,299.618 465.296,314.813 461.619,325.592 C 459.625,331.438 458.495,333.526 450.127,346.814 C 443.887,356.723 441.799,359.516 437.069,364.276 C 428.626,372.772 420.33,377.103 408.284,379.302 C 401.245,380.587 383.065,380.958 364.199,380.201 C 341.841,379.304 326.987,378.414 324.24,377.804 C 322.589,377.439 322.028,377.504 322.028,378.062 C 322.028,378.474 325.213,393.154 329.106,410.686 C 332.998,428.218 336.183,443.15 336.183,443.868 C 336.183,445.716 333.994,449.029 332.145,449.978 C 331.284,450.419 329.121,451.074 327.337,451.433 C 321.233,452.66 297.814,456.224 295.851,456.224 C 294.773,456.224 292.989,455.618 291.887,454.878 L 291.887,454.878 M 311.957,440.57 C 321.186,439.04 322.244,438.768 321.796,438.042 C 321.662,437.818 319.248,427.287 316.441,414.638 C 313.634,401.989 309.996,385.933 308.356,378.958 L 305.375,366.277 L 300.825,361.854 C 292.588,353.846 287.367,344.783 284.773,333.999 C 283.58,329.029 283.252,328.307 282.322,328.596 C 281.732,328.78 279.482,329.105 277.322,329.32 L 273.394,329.709 L 272.639,332.953 C 271.293,338.72 271.062,347.511 272.135,352.055 C 274.551,362.286 282.048,371.449 295.933,381.14 C 298.936,383.236 301.656,385.443 301.979,386.044 C 302.3,386.646 302.566,388.416 302.568,389.979 C 302.568,394.381 304.691,407.521 307.312,419.427 C 308.621,425.373 309.849,431.544 310.038,433.141 C 310.354,435.818 310.258,436.126 308.802,437.08 C 307.704,437.8 307.035,437.927 306.605,437.498 C 306.003,436.896 302.34,424.206 300.476,416.264 C 298.6,408.272 297.321,400.224 296.92,393.877 L 296.509,387.384 L 293.238,385.781 C 288.095,383.258 282.667,379.146 276.857,373.373 C 272.336,368.879 271.067,367.171 268.733,362.444 C 263.528,351.896 262.982,342.784 266.831,330.741 C 267.215,329.54 267.063,329.414 265.224,329.414 C 264.105,329.414 261.288,328.984 258.963,328.459 C 256.637,327.934 254.58,327.657 254.393,327.845 C 254.206,328.032 253.398,331.182 252.599,334.845 C 249.734,347.973 250.795,358.208 256.227,369.834 C 262.499,383.255 270.843,391.021 282.448,394.236 C 290.266,396.403 290.446,396.686 293.415,411.307 C 296.035,424.217 298.923,437.682 299.662,440.451 C 300.16,442.321 300.458,442.622 301.556,442.373 C 302.273,442.211 306.953,441.4 311.957,440.57 L 311.957,440.57 M 381.55,367.528 C 381.416,367.404 375.687,365.812 368.822,363.987 C 353.328,359.87 346.478,357.508 335.686,352.562 C 325.673,347.973 325.013,347.468 325.926,345.092 C 326.516,343.551 328.104,343.981 336.908,348.062 C 346.37,352.449 358.033,356.494 371.572,360.083 C 383.081,363.134 399.931,366.562 403.445,366.568 C 410.765,366.588 421.627,361.698 427.777,355.633 C 429.98,353.46 431.674,351.572 431.54,351.438 C 431.406,351.304 429.868,351.759 428.123,352.449 C 414.503,357.838 383.588,358.5 363.46,353.835 C 355.951,352.095 344.556,347.263 341.64,344.583 C 338.483,341.685 340.381,340.573 353.582,337.581 C 364.064,335.206 365.363,335.041 373.637,335.03 C 378.502,335.03 389.65,335.388 398.408,335.842 C 416.583,336.782 425.245,336.321 434.768,333.906 C 442.907,331.841 444.83,330.705 447.014,326.674 C 448.015,324.827 448.704,323.186 448.547,323.028 C 448.379,322.871 446.199,323.216 443.683,323.797 C 437.711,325.173 420.668,325.645 409.615,324.741 C 405.074,324.37 395.253,323.91 387.791,323.718 C 367.158,323.189 362.229,324.337 341.787,334.429 C 334.974,337.792 327.542,341.242 325.272,342.096 C 318.939,344.476 308.715,346.938 303.186,347.413 C 298.627,347.805 298.302,347.915 299.352,348.713 C 300.262,349.404 301.747,349.519 306.505,349.267 L 312.512,348.949 L 318.855,352.796 C 322.344,354.912 326.941,357.516 329.069,358.584 C 335.852,361.985 346.4,365.926 349.75,366.31 C 355.612,366.982 382.063,367.995 381.55,367.528 L 381.55,367.528 M 333.234,365.393 C 333.234,365.068 332.831,364.803 332.339,364.803 C 331.237,364.803 319.153,358.563 314.542,355.613 C 311.482,353.656 310.751,353.445 306.801,353.377 L 302.437,353.297 L 305.274,355.794 C 310.83,360.682 319.288,364.057 329.209,365.344 C 331.261,365.61 333.006,365.862 333.086,365.903 C 333.17,365.943 333.237,365.712 333.237,365.388 L 333.234,365.393 M 408.73,351.794 C 417.259,351.017 423.542,349.552 430.034,346.829 C 435.324,344.61 436.303,343.813 439.057,339.5 C 440.44,337.335 440.532,336.975 439.615,337.33 C 439.01,337.564 436.26,338.318 433.503,339.005 C 429.019,340.121 426.743,340.257 411.974,340.289 C 402.892,340.309 389.222,340.097 381.599,339.818 L 367.738,339.311 L 359.187,341.204 C 354.482,342.245 350.28,343.292 349.847,343.531 C 348.824,344.098 358.884,347.963 365.291,349.465 C 376.618,352.121 394.583,353.084 408.73,351.794 L 408.73,351.794 M 298.202,334.55 C 304.214,326.467 316.334,312.752 322.804,306.711 C 330.844,299.203 337.393,294.554 345.325,290.727 C 362.617,282.383 377.499,281.539 421.517,286.406 C 430.333,287.381 439.624,288.101 442.16,288.006 L 446.773,287.832 L 440.874,284.805 C 429.044,278.732 415.771,275.271 402.242,274.73 C 392.459,274.339 384.367,275.167 371.572,277.87 C 366.22,279.0 356.005,281.128 348.873,282.598 C 333.974,285.669 329.03,287.398 322.028,291.987 C 315.351,296.362 314.333,297.419 310.118,304.335 C 303.178,315.724 298.926,320.696 292.952,324.411 C 290.257,326.086 290.14,326.268 290.496,328.221 C 291.085,331.435 293.723,339.444 294.185,339.416 C 294.414,339.396 296.223,337.213 298.202,334.55 L 298.202,334.55 M 306.988,337.986 C 308.285,337.791 311.674,336.933 314.52,336.08 C 319.567,334.567 319.77,334.435 322.873,330.645 C 327.38,325.137 339.318,313.63 343.85,310.424 C 349.103,306.709 356.159,303.252 362.46,301.305 C 367.621,299.71 368.066,299.673 382.483,299.658 C 394.517,299.638 399.399,299.905 409.024,301.07 C 417.337,302.077 424.045,302.51 431.732,302.538 C 441.704,302.578 443.014,302.458 446.945,301.169 L 451.245,299.76 L 450.894,297.041 C 450.157,291.325 451.011,291.826 442.509,292.106 C 436.776,292.295 430.681,291.904 416.988,290.469 C 392.389,287.892 372.863,287.446 364.052,289.263 C 352.552,291.633 343.915,295.646 334.048,303.203 C 326.441,309.029 310.785,325.574 303.004,336.01 C 300.984,338.719 300.984,339.019 303.004,338.643 C 303.895,338.477 305.687,338.181 306.985,337.986 L 306.988,337.986 M 339.722,325.461 C 349.734,320.486 356.771,317.838 364.495,316.141 C 371.325,314.64 389.044,314.346 401.947,315.519 C 424.913,317.608 435.991,317.312 446.226,314.336 C 450.777,313.013 451.238,312.49 451.626,308.211 C 451.966,304.467 451.964,304.458 450.55,304.858 C 442.864,307.03 441.118,307.257 432.322,307.228 C 427.295,307.208 417.606,306.629 410.795,305.934 C 379.144,302.707 370.793,302.968 358.493,307.571 C 353.28,309.521 344.648,315.268 338.838,320.657 C 333.329,325.767 328.375,330.952 329.4,330.537 C 329.724,330.405 334.371,328.121 339.722,325.461 L 339.722,325.461 M 199.391,321.386 C 212.93,319.072 227.238,312.31 239.455,302.451 C 245.609,297.484 253.418,289.233 257.031,283.878 C 258.705,281.397 260.598,279.201 261.236,278.998 C 262.897,278.472 265.913,280.217 266.349,281.957 C 266.777,283.663 266.03,285.688 263.288,290.24 C 261.987,292.401 261.567,293.574 262.04,293.735 C 266.103,295.117 278.833,295.556 286.654,294.584 C 297.997,293.175 304.554,291.295 312.748,287.104 C 318.817,283.999 320.778,281.936 324.244,275.008 C 327.257,268.983 331.49,263.282 335.696,259.583 C 339.53,256.212 346.253,252.739 348.943,252.739 C 351.61,252.739 353.417,254.567 353.176,257.017 C 353.009,258.658 352.521,259.107 348.799,260.999 C 341.946,264.485 336.773,268.966 336.773,271.419 C 336.773,273.703 342.74,274.917 349.205,273.948 C 358.491,272.556 387.691,265.166 391.53,263.236 C 396.121,260.929 402.472,255.14 406.726,249.388 C 409.424,245.74 410.185,245.071 411.641,245.071 C 413.477,245.071 415.807,247.35 415.807,249.145 C 415.807,250.949 411.399,257.678 407.782,261.394 C 405.801,263.43 404.318,265.235 404.489,265.405 C 404.659,265.575 405.764,265.715 406.945,265.715 C 408.127,265.715 411.997,266.264 415.547,266.934 C 419.096,267.605 424.389,268.192 427.31,268.237 C 433.384,268.337 438.341,267.178 454.678,261.866 C 460.138,260.09 465.291,258.637 466.125,258.637 C 469.21,258.637 470.735,263.696 468.153,265.367 C 467.424,265.839 463.244,267.442 458.864,268.929 C 454.485,270.416 450.504,271.79 450.016,271.982 C 447.871,272.831 465.045,277.511 470.307,277.511 C 480.201,277.511 489.908,272.396 493.974,265.04 C 495.439,262.388 495.719,261.218 495.723,257.752 C 495.723,253.175 495.014,250.977 492.036,246.411 C 489.632,242.721 483.968,238.734 478.328,236.761 C 474.187,235.312 465.639,234.918 458.683,235.856 L 455.259,236.317 L 455.659,243.201 C 456.032,249.647 455.98,250.153 454.858,251.161 C 454.132,251.813 453.001,252.162 451.986,252.046 C 449.506,251.762 448.252,248.835 448.239,243.302 C 448.239,240.869 448.005,238.524 447.731,238.092 C 447.323,237.447 446.069,237.547 440.789,238.646 C 437.245,239.383 433.887,239.81 433.329,239.596 C 431.935,239.061 430.916,236.615 431.358,234.859 C 431.809,233.064 434.463,231.928 441.19,230.652 C 443.89,230.14 446.214,229.607 446.353,229.468 C 446.835,228.987 444.67,217.875 443.155,213.053 C 438.702,198.878 430.487,188.45 422.978,187.443 C 417.708,186.736 411.664,192.023 402.783,205.108 C 396.221,214.777 388.766,222.268 382.769,225.22 C 378.069,227.533 371.835,229.119 367.379,229.136 C 365.883,229.136 361.051,228.73 356.64,228.221 L 348.624,227.296 L 339.493,229.417 C 333.115,230.898 327.818,231.714 321.92,232.123 C 307.674,233.11 306.236,233.726 296.657,242.942 C 285.735,253.451 280.575,255.795 265.433,257.129 C 258.409,257.747 255.313,258.296 252.196,259.472 C 238.535,264.631 230.351,273.336 223.319,290.192 C 220.306,297.409 219.763,298.154 217.508,298.154 C 215.016,298.154 212.907,296.135 212.933,293.775 C 212.933,292.777 213.712,290.037 214.64,287.685 C 215.732,284.918 216.08,283.409 215.623,283.409 C 215.235,283.409 214.665,283.645 214.358,283.933 C 211.823,286.303 173.368,299.334 168.909,299.334 C 165.349,299.334 163.667,294.426 166.575,292.522 C 167.84,291.693 183.891,286.453 193.745,283.652 L 197.283,282.646 L 195.218,281.917 C 189.525,279.907 177.694,274.373 176.787,273.296 C 175.339,271.578 175.503,269.696 177.245,268.059 C 179.065,266.348 179.405,266.429 191.68,271.469 C 196.383,273.4 202.144,275.443 204.483,276.008 L 208.735,277.036 L 212.438,274.787 C 214.475,273.55 219.728,269.863 224.112,266.593 C 234.407,258.915 236.686,257.37 240.871,255.226 C 244.315,253.463 244.322,253.454 242.922,252.594 C 238.416,249.825 233.72,247.118 221.519,240.259 C 214.028,236.048 207.391,232.104 206.769,231.497 C 204.218,229.003 206.465,223.838 210.103,223.838 C 211.168,223.838 217.253,226.789 226.367,231.724 C 250.208,244.635 254.465,246.512 263.341,248.034 C 266.892,248.642 268.049,248.599 271.599,247.726 C 277.591,246.253 282.699,243.664 285.061,240.904 C 287.517,238.034 288.774,234.077 287.983,231.698 C 287.437,230.055 286.873,229.649 282.219,227.553 C 279.221,226.203 278.318,224.038 279.808,221.766 C 280.731,220.356 281.125,220.218 283.591,220.441 C 285.106,220.578 289.794,221.459 294.012,222.399 C 301.212,224.003 302.471,224.107 314.655,224.093 C 329.686,224.073 333.138,223.425 342.451,218.841 C 351.482,214.395 356.742,207.511 357.936,198.567 C 358.555,193.941 359.707,191.975 361.785,192.007 C 364.879,192.057 366.632,195.836 365.975,201.05 C 365.453,205.18 364.747,207.418 362.25,212.849 L 360.115,217.49 L 361.681,218.837 C 366.785,223.228 378.606,219.928 386.552,211.894 C 390.398,208.005 404.672,188.985 412.201,177.72 C 416.199,171.738 420.964,161.833 421.794,157.779 C 423.597,148.987 418.091,140.494 408.591,137.407 C 403.546,135.767 401.872,133.543 403.457,130.581 C 404.622,128.404 406.599,128.188 411.392,129.71 C 423.812,133.654 431.144,143.414 431.144,156.005 C 431.144,158.137 430.779,161.2 430.336,162.812 C 427.38,173.546 427.517,172.454 428.763,175.267 C 429.393,176.694 432.343,180.405 435.387,183.603 C 445.205,193.915 449.759,204.027 454.136,225.233 L 454.85,228.692 L 457.005,228.337 C 458.19,228.141 461.952,227.809 465.366,227.599 C 473.298,227.109 479.704,228.308 486.29,231.513 C 492.314,234.445 495.868,237.553 499.468,243.036 L 502.34,247.412 L 502.996,243.44 C 506.316,223.331 502.315,203.662 492.66,192.631 C 490.097,189.702 485.34,186.09 484.046,186.09 C 483.083,186.09 484.225,189.18 488.478,198.077 L 492.66,206.819 L 491.421,208.059 C 490.47,209.009 489.896,209.171 488.96,208.753 C 487.328,208.025 480.712,198.689 478.139,193.483 C 474.958,187.05 474.184,183.349 473.625,171.935 C 472.495,148.758 465.739,128.993 454.4,115.681 C 449.934,110.439 443.447,104.458 440.094,102.49 L 437.542,100.993 L 435.964,102.168 C 434.068,103.579 433.197,105.758 433.71,107.803 C 433.917,108.63 436.36,112.316 439.137,115.996 C 445.019,123.789 451.489,136.194 453.596,143.718 C 457.11,156.265 453.479,172.561 447.328,171.831 C 444.574,171.505 444.328,170.208 446.159,165.673 C 448.333,160.292 448.836,153.043 447.388,148.015 C 445.908,142.877 438.793,128.558 435.641,124.375 C 429.156,115.77 414.197,106.631 401.944,103.789 C 396.667,102.565 388.604,102.569 385.156,103.789 C 374.085,107.732 366.934,118.872 361.208,141.101 C 359.528,147.629 360.832,149.226 369.293,151.007 C 376.795,152.585 380.02,153.743 381.762,155.487 C 383.618,157.342 383.561,158.893 381.565,160.973 C 380.505,162.076 380.308,162.081 374.695,161.13 C 366.152,159.681 365.321,159.634 358.891,160.223 C 351.265,160.921 341.349,163.155 332.816,166.098 C 319.235,170.781 311.609,175.758 306.938,182.988 C 305.234,185.627 304.667,186.084 303.109,186.084 C 302.096,186.084 299.533,185.106 297.353,183.887 C 293.721,181.857 292.996,181.673 287.754,181.463 C 280.704,181.18 277.922,181.926 267.146,186.993 C 262.751,189.06 256.715,191.682 253.734,192.82 C 248.682,194.748 230.498,200.137 221.759,202.297 C 207.869,205.731 201.88,208.775 195.218,215.794 C 192.461,218.698 185.145,226.274 178.962,232.628 C 158.82,253.322 154.391,259.29 150.894,270.448 C 149.755,274.078 149.513,276.146 149.511,282.223 C 149.511,289.094 149.611,289.824 151.148,292.935 C 154.142,299.031 159.919,302.981 166.011,303.095 L 169.562,303.165 L 169.957,306.704 C 170.487,311.443 171.159,313.005 173.983,316.07 C 178.985,321.496 187.866,323.354 199.391,321.384 L 199.391,321.386 M 281.318,321.416 C 285.257,320.488 290.906,317.626 294.012,314.984 L 295.781,313.479 L 292.762,314.95 C 287.542,317.492 282.851,318.398 276.904,318.011 C 267.608,317.407 259.916,314.101 253.606,307.996 L 250.673,305.16 L 248.603,306.739 C 247.463,307.608 246.532,308.633 246.532,309.018 C 246.532,310.129 249.73,314.784 251.91,316.848 C 254.164,318.981 258.327,320.982 262.027,321.712 C 266.294,322.555 277.198,322.387 281.318,321.416 L 281.318,321.416 M 285.357,311.41 C 287.408,310.927 290.528,309.825 292.289,308.963 C 295.549,307.367 302.016,302.496 302.385,301.358 C 302.502,300.97 299.829,301.245 295.352,302.078 C 286.813,303.667 275.655,304.629 265.406,304.658 L 258.033,304.678 L 259.508,305.926 C 261.547,307.652 267.753,310.417 271.781,311.394 C 276.243,312.476 280.809,312.481 285.357,311.414 L 285.357,311.41 M 108.961,286.051 C 118.969,282.702 124.742,279.24 133.346,271.424 L 137.122,267.995 L 127.39,268.389 C 122.038,268.607 114.739,268.987 111.171,269.234 L 104.682,269.683 L 99.207,273.341 C 87.953,280.856 86.552,284.354 93.476,287.643 C 96.671,289.16 101.001,288.715 108.961,286.051 L 108.961,286.051 M 84.533,285.678 C 84.069,284.331 83.85,282.494 84.048,281.594 C 84.611,279.03 87.826,274.606 90.332,272.948 C 91.588,272.117 92.529,271.351 92.422,271.245 C 92.322,271.139 85.477,271.575 77.223,272.215 C 68.969,272.855 60.756,273.39 58.972,273.405 L 55.729,273.435 L 59.178,276.62 C 63.314,280.436 70.064,283.868 78.179,286.28 C 85.857,288.562 85.536,288.593 84.533,285.68 L 84.533,285.678 M 74.115,264.794 C 79.881,264.289 84.688,263.785 84.798,263.675 C 84.915,263.565 82.003,262.477 78.341,261.257 C 69.131,258.188 60.888,253.942 56.762,250.141 C 54.896,248.422 52.801,246.717 52.108,246.351 C 51.412,245.986 46.062,244.092 40.215,242.143 C 34.37,240.194 27.539,237.666 25.038,236.526 C 22.535,235.385 20.35,234.452 20.181,234.452 C 20.012,234.452 20.03,236.371 20.231,238.716 C 21.212,250.423 32.645,261.708 46.617,264.762 C 51.763,265.887 61.505,265.898 74.115,264.792 L 74.115,264.794 M 140.207,259.295 C 142.228,259.052 144.046,258.691 144.243,258.492 C 144.442,258.293 143.718,256.453 142.633,254.401 L 140.662,250.672 L 134.008,249.978 C 126.342,249.179 124.515,248.355 121.788,244.472 C 120.228,242.252 119.572,241.795 117.73,241.64 C 113.724,241.303 110.669,243.384 106.113,249.55 C 103.878,252.578 101.372,255.498 100.546,256.04 C 99.718,256.582 99.132,257.114 99.24,257.223 C 99.466,257.449 112.898,259.632 116.479,260.025 C 119.514,260.358 135.429,259.868 140.207,259.295 L 140.207,259.295 M 92.83,252.917 C 96.625,251.852 99.021,249.835 105.172,242.53 C 108.902,238.101 111.803,236.613 116.774,236.578 C 121.58,236.548 123.964,237.744 126.094,241.27 C 127.969,244.374 129.159,244.835 136.452,245.287 C 142.252,245.646 143.773,246.33 145.828,249.503 C 146.555,250.624 147.334,251.545 147.56,251.549 C 148.56,251.569 155.485,245.185 159.197,240.827 C 166.983,231.683 169.081,224.054 165.673,217.274 C 164.358,214.655 161.611,212.265 159.342,211.767 C 157.555,211.374 156.752,211.618 147.149,215.469 C 143.905,216.769 138.796,218.43 135.795,219.158 C 132.794,219.887 130.339,220.792 130.339,221.169 C 130.339,221.547 130.772,223.128 131.302,224.683 C 131.983,226.678 133.63,228.958 136.905,232.435 C 139.458,235.145 141.546,237.6 141.546,237.892 C 141.546,238.859 139.115,241.53 138.236,241.53 C 134.342,241.53 127.288,234.358 124.382,227.445 L 122.376,222.671 L 116.183,222.671 C 106.423,222.671 102.467,223.927 89.348,231.176 C 83.105,234.625 80.46,235.191 78.875,233.419 C 76.419,230.672 77.577,228.405 82.757,225.825 C 85.084,224.665 87.983,222.76 89.2,221.591 C 92.031,218.871 92.12,216.772 89.548,213.276 C 87.993,211.162 87.776,210.488 88.229,209.197 C 88.528,208.347 89.461,207.265 90.304,206.792 C 91.683,206.018 92.058,206.05 94.129,207.121 C 102.022,211.205 103.908,212.038 107.347,212.962 C 119.114,216.122 138.331,212.377 145.069,205.61 C 149.591,201.068 150.481,194.512 147.7,186.191 C 144.847,177.642 134.656,159.095 126.666,147.903 C 123.958,144.109 123.682,143.453 124.192,142.007 C 124.988,139.741 127.475,138.6 129.408,139.613 C 131.055,140.478 134.795,145.112 139.779,152.467 C 141.648,155.225 143.862,158.116 144.699,158.891 L 146.223,160.302 L 149.739,159.316 C 155.864,157.597 160.347,157.459 164.921,158.851 C 170.392,160.515 173.184,162.73 178.107,169.308 C 183.078,175.952 185.116,177.239 190.653,177.239 C 192.775,177.239 194.699,177.546 195.101,177.947 C 197.348,180.194 194.24,182.526 188.371,182.996 C 181.013,183.587 179.457,182.701 172.502,173.966 C 169.004,169.572 167.526,168.204 164.868,166.904 C 161.208,165.114 158.073,165.116 155.334,166.904 C 153.271,168.256 151.967,171.581 152.46,174.232 C 153.041,177.343 157.876,189.889 160.27,194.493 C 163.978,201.625 170.397,206.35 181.784,210.329 L 185.748,211.714 L 187.977,209.597 C 193.736,204.125 200.434,200.263 209.964,196.917 C 216.451,194.64 218.268,193.033 219.693,188.316 C 221.256,183.145 223.445,169.105 224.663,156.44 C 229.475,106.47 228.288,77.261 220.699,58.947 C 218.332,53.235 216.486,50.474 211.39,45.025 C 207.062,40.398 206.346,38.942 207.722,37.566 C 209.37,35.917 212.709,37.286 217.135,41.425 C 218.705,42.895 219.989,43.729 219.987,43.279 C 219.987,42.829 219.621,40.058 219.18,37.12 C 217.391,25.199 214.097,22.403 200.006,20.836 C 189.652,19.685 179.154,21.19 169.982,25.14 L 167.203,26.337 L 168.972,27.76 C 169.945,28.542 172.904,30.505 175.548,32.122 C 181.914,36.017 184.722,38.94 190.881,48.091 C 195.52,54.986 195.975,55.904 195.467,57.35 C 194.771,59.327 192.305,60.335 190.349,59.443 C 189.59,59.098 186.673,55.631 183.864,51.739 C 181.055,47.847 177.618,43.672 176.223,42.46 C 172.938,39.602 167.825,37.175 162.395,35.894 L 158.055,34.871 L 149.948,36.763 C 140.429,38.983 134.175,41.843 128.77,46.447 C 122.657,51.653 120.634,55.17 121.512,59.065 C 122.736,64.492 124.849,65.285 136.816,64.807 C 141.526,64.619 147.369,64.727 149.804,65.049 L 154.226,65.633 L 155.996,63.667 C 158.341,61.062 162.025,58.681 163.712,58.681 C 165.038,58.681 166.907,60.616 166.907,61.989 C 166.907,62.366 165.934,63.621 164.744,64.776 L 162.58,66.878 L 166.981,68.883 C 172.635,71.46 175.088,73.659 179.311,79.94 C 181.756,83.576 183.305,85.279 184.703,85.869 C 187.119,86.888 191.598,86.757 195.514,85.552 C 200.777,83.933 203.114,84.526 204.269,87.772 C 204.948,89.679 203.532,91.081 198.416,93.57 C 192.193,96.597 188.154,100.297 185.962,104.981 C 184.417,108.284 184.309,109.011 184.339,115.893 C 184.372,122.767 184.506,123.604 186.303,128.279 C 189.565,136.751 189.714,137.482 188.46,138.869 C 186.932,140.557 184.278,140.424 182.565,138.573 C 181.187,137.087 180.239,134.984 176.086,124.2 C 170.967,110.909 162.142,102.499 149.988,99.325 C 142.611,97.399 134.601,98.693 125.473,103.288 C 112.328,109.903 104.246,118.642 100.253,130.561 C 97.697,138.19 96.244,151.171 97.147,158.318 C 98.434,168.515 104.44,176.634 110.705,176.646 C 114.067,176.646 116.743,177.792 117.143,179.387 C 117.571,181.092 117.009,181.629 113.824,182.536 C 108.233,184.13 103.226,183.02 98.302,179.093 C 94.935,176.409 92.584,175.794 89.929,176.904 C 84.185,179.303 67.599,194.37 62.898,201.458 C 56.68,210.833 55.162,224.313 59.029,235.796 C 61.933,244.416 69.27,251.282 77.696,253.268 C 81.47,254.157 89.02,253.979 92.83,252.909 L 92.83,252.917 M 49.887,234.6 C 47.547,223.13 48.409,211.555 52.223,203.296 C 55.107,197.051 57.494,194.024 68.123,183.139 C 77.995,173.026 80.027,170.492 83.006,164.56 C 85.175,160.241 88.12,151.167 89.04,145.98 C 89.413,143.872 90.64,137.435 91.767,131.676 C 94.057,119.971 93.989,118.595 90.894,114.324 C 88.9,111.569 84.511,108.509 81.125,107.512 C 77.317,106.39 70.437,106.68 65.754,108.162 C 59.255,110.217 47.784,116.087 42.533,120.043 C 33.745,126.666 27.766,134.396 24.117,143.858 C 21.702,150.12 20.719,155.061 20.076,164.149 C 19.627,170.496 19.218,172.536 17.392,177.535 C 13.069,189.374 11.686,198.831 12.923,208.122 C 14.797,222.209 19.644,226.733 39.214,232.66 C 43.755,234.036 47.869,235.392 48.356,235.673 C 49.861,236.545 50.232,236.284 49.887,234.6 M 40.23,215.773 C 39.114,215.323 34.95,208.972 32.827,204.476 C 31.12,200.862 30.95,199.951 30.756,193.419 C 30.622,188.593 30.84,184.711 31.476,181.365 C 31.988,178.651 32.294,176.317 32.155,176.179 C 31.695,175.718 26.472,184.302 24.406,188.915 C 21.162,196.156 21.192,196.114 19.34,196.114 C 16.605,196.114 16.309,194.219 18.037,187.761 C 19.887,180.851 22.724,174.978 26.359,170.544 C 32.205,163.407 31.704,164.963 30.119,158.893 C 28.315,151.973 28.612,147.018 31.244,140.195 C 34.287,132.301 37.333,129.882 39.453,133.672 C 40.255,135.107 40.179,135.581 38.44,139.982 C 36.253,145.517 35.974,150.331 37.498,156.217 C 38.971,161.906 39.152,161.989 41.203,157.924 C 43.33,153.712 64.573,121.678 66.824,119.291 C 68.581,117.427 69.031,117.351 71.313,118.531 C 73.217,119.515 73.881,121.292 73.105,123.331 C 72.811,124.104 68.994,130.048 64.622,136.538 C 60.25,143.029 56.889,148.34 57.152,148.34 C 57.414,148.34 59.385,147.543 61.532,146.57 C 63.679,145.597 66.103,144.801 66.922,144.801 C 69.116,144.801 70.876,146.833 70.656,149.112 C 70.485,150.871 70.047,151.207 63.95,154.252 C 55.274,158.585 52.027,160.732 48.481,164.481 C 44.706,168.474 42.128,173.596 40.304,180.733 C 37.535,191.571 37.771,197.771 41.287,206.553 C 43.146,211.196 43.512,214.288 42.339,215.46 C 41.583,216.216 41.401,216.243 40.23,215.773 L 40.23,215.773 M 252.725,182.87 C 255.963,182.1 271.529,175.565 277.718,172.377 C 281.282,170.541 285.782,166.407 287.607,163.291 C 290.926,157.629 291.516,154.418 291.809,140.469 C 292.093,126.97 291.224,109.291 289.906,101.699 C 288.325,92.596 283.77,86.355 276.431,83.236 C 270.482,80.708 270.301,77.864 275.934,75.395 C 281.622,72.901 285.452,68.452 288.226,61.12 C 291.844,51.555 296.666,34.25 296.666,30.828 C 296.666,24.245 293.329,20.513 284.944,17.721 C 276.62,14.949 269.42,13.813 258.033,13.475 C 248.724,13.199 246.741,13.31 241.929,14.377 C 232.292,16.514 227.999,19.924 227.285,26.008 C 226.979,28.624 228.932,45.502 229.803,47.776 C 230.363,49.235 231.403,48.804 234.171,45.964 C 239.283,40.721 251.395,33.916 255.62,33.916 C 257.356,33.916 259.143,36.183 258.575,37.665 C 258.371,38.196 255.91,40.006 253.106,41.688 C 243.021,47.734 237.619,52.751 234.8,58.688 C 232.814,62.874 232.851,67.481 234.982,81.901 C 236.586,92.739 237.169,94.648 239.545,96.81 C 242.66,99.642 244.608,100.16 250.57,99.741 C 256.848,99.3 258.329,99.921 258.329,102.995 C 258.329,104.966 257.189,105.693 252.32,106.829 C 245.086,108.517 238.545,112.892 236.823,117.193 C 235.608,120.233 233.309,154.513 233.747,163.085 C 234.093,169.862 235.725,174.937 238.659,178.365 C 241.294,181.443 243.939,182.812 248.891,183.66 C 249.058,183.69 250.779,183.332 252.725,182.87 M 312.591,165.194 C 317.934,162.886 335.593,154.957 339.96,152.906 C 344.967,150.554 348.537,147.183 350.82,142.648 C 356.384,131.606 359.942,108.923 357.837,97.911 C 355.702,86.742 352.507,81.929 344.778,78.239 C 340.164,76.036 339.722,75.678 339.722,74.131 C 339.722,70.123 343.576,69.515 349.928,72.52 C 357.251,75.984 362.559,82.86 365.717,92.975 C 366.693,96.1 367.999,99.116 368.621,99.678 C 370.109,101.025 372.298,100.657 378.681,97.986 C 385.156,95.277 390.649,94.478 397.478,95.252 C 402.765,95.85 410.17,97.753 415.699,99.932 C 422.355,102.556 425.872,100.994 425.809,95.443 C 425.742,89.978 423.57,86.666 412.586,75.328 C 403.531,65.981 395.773,59.45 386.317,53.215 C 376.718,46.884 369.73,43.79 355.353,39.505 C 350.137,37.951 349.968,37.842 345.689,33.268 C 337.479,24.489 329.45,21.35 318.991,22.829 C 314.926,23.403 314.032,23.361 312.248,22.511 C 311.118,21.972 309.974,21.53 309.708,21.53 C 309.442,21.53 308.926,23.342 308.56,25.556 C 308.195,27.77 306.702,32.946 305.244,37.057 C 302.812,43.911 302.546,45.477 304.069,43.983 C 304.377,43.68 306.644,42.759 309.105,41.935 C 315.311,39.86 322.517,39.133 329.923,39.835 C 340.633,40.85 345.755,42.654 357.416,49.523 C 361.696,52.045 371.067,56.865 378.24,60.234 C 394.205,67.734 396.784,69.262 400.834,73.62 C 405.816,78.982 406.751,81.707 403.913,82.607 C 403.019,82.891 401.819,82.086 398.806,79.18 C 396.641,77.091 394.009,74.938 392.957,74.396 C 390.853,73.309 376.29,67.56 376.29,67.816 C 376.29,67.906 376.837,69.211 377.506,70.722 C 378.174,72.233 379.109,75.335 379.586,77.615 C 380.619,82.574 379.942,84.935 377.482,84.935 C 376.187,84.935 375.911,84.478 374.806,80.511 C 372.343,71.663 366.951,64.139 359.576,59.255 C 353.86,55.47 341.382,49.501 336.656,48.29 C 330.368,46.68 318.907,46.823 314.114,48.573 C 305.039,51.883 298.737,58.77 296.702,67.602 C 295.933,70.934 295.927,82.031 296.685,92.897 C 297.685,107.214 298.717,110.769 302.614,113.349 C 305.986,115.581 308.621,115.668 317.007,113.826 C 325.267,112.011 326.855,112.199 327.967,115.123 C 328.925,117.643 327.26,119.23 321.206,121.565 C 313.557,124.516 309.265,126.979 306.707,129.885 C 302.236,134.963 301.119,139.063 300.462,152.804 C 300.125,159.858 300.208,161.382 301.027,162.964 C 302.98,166.74 307.15,167.545 312.59,165.194 L 312.591,165.194 M 102.863,105.585 C 104.132,105.37 109.477,102.999 114.739,100.316 C 134.623,90.179 145.377,88.854 163.074,94.361 C 170.437,96.652 172.789,96.26 174.369,92.48 C 175.501,89.772 174.981,86.691 172.816,83.278 C 169.651,78.285 163.274,75.271 151.357,73.134 C 141.115,71.297 127.2,72.647 114.664,76.694 C 108.613,78.648 98.995,83.376 95.246,86.241 C 92.1,88.645 87.639,94.708 87.154,97.239 C 86.783,99.183 88.864,102.348 91.648,104.068 C 93.713,105.344 98.038,106.466 99.668,106.148 C 100.156,106.058 101.593,105.8 102.863,105.585 L 102.863,105.585 M 54.843,102.581 C 56.953,101.692 63.323,99.613 68.999,97.963 L 79.321,94.962 L 82.392,90.243 C 86.576,83.816 90.068,80.763 97.925,76.665 C 108.909,70.934 112.055,67.726 112.055,62.256 C 112.055,57.51 109.574,55.065 105.714,56.007 C 102.795,56.72 87.853,64.511 81.752,68.502 C 68.472,77.188 58.59,87.552 51.686,100.032 C 49.369,104.222 49.127,104.993 50.272,104.509 C 50.678,104.338 52.735,103.47 54.843,102.581 L 54.843,102.581" id="path180" style="fill:#000000;stroke-width:1"/>
</svg>
